<?xml version="1.0" encoding="UTF-8" standalone="no"?><svg xmlns="http://www.w3.org/2000/svg" xmlns:xlink="http://www.w3.org/1999/xlink" contentScriptType="application/ecmascript" contentStyleType="text/css" height="266px" preserveAspectRatio="none" style="width:444px;height:266px;" version="1.1" viewBox="0 0 444 266" width="444px" zoomAndPan="magnify"><defs><filter height="300%" id="fut9hq0" width="300%" x="-1" y="-1"><feGaussianBlur result="blurOut" stdDeviation="2.0"/><feColorMatrix in="blurOut" result="blurOut2" type="matrix" values="0 0 0 0 0 0 0 0 0 0 0 0 0 0 0 0 0 0 .4 0"/><feOffset dx="4.0" dy="4.0" in="blurOut2" result="blurOut3"/><feBlend in="SourceGraphic" in2="blurOut3" mode="normal"/></filter></defs><g><text fill="#000000" font-family="sans-serif" font-size="18" lengthAdjust="spacingAndGlyphs" textLength="176" x="138.5" y="17.4023">ticket &amp; issue to Jira</text><!--entity AnyToJira--><rect fill="#FEFECE" filter="url(#fut9hq0)" height="36.4883" style="stroke: #A80036; stroke-width: 1.5;" width="86" x="193" y="125.1992"/><rect fill="#FEFECE" height="5" style="stroke: #A80036; stroke-width: 1.5;" width="10" x="188" y="130.1992"/><rect fill="#FEFECE" height="5" style="stroke: #A80036; stroke-width: 1.5;" width="10" x="188" y="151.6875"/><text fill="#000000" font-family="sans-serif" font-size="14" lengthAdjust="spacingAndGlyphs" textLength="66" x="203" y="148.7344">AnyToJira</text><!--entity NEW JIRA--><rect fill="#FEFECE" filter="url(#fut9hq0)" height="36.4883" style="stroke: #A80036; stroke-width: 1.5;" width="81" x="195.5" y="221.1992"/><rect fill="#FEFECE" height="5" style="stroke: #A80036; stroke-width: 1.5;" width="10" x="190.5" y="226.1992"/><rect fill="#FEFECE" height="5" style="stroke: #A80036; stroke-width: 1.5;" width="10" x="190.5" y="247.6875"/><text fill="#000000" font-family="sans-serif" font-size="14" lengthAdjust="spacingAndGlyphs" textLength="61" x="205.5" y="244.7344">NEW JIRA</text><!--entity Confluence--><rect fill="#FEFECE" filter="url(#fut9hq0)" height="36.4883" style="stroke: #A80036; stroke-width: 1.5;" width="98" x="6" y="29.1992"/><rect fill="#FEFECE" height="5" style="stroke: #A80036; stroke-width: 1.5;" width="10" x="1" y="34.1992"/><rect fill="#FEFECE" height="5" style="stroke: #A80036; stroke-width: 1.5;" width="10" x="1" y="55.6875"/><text fill="#000000" font-family="sans-serif" font-size="14" lengthAdjust="spacingAndGlyphs" textLength="78" x="16" y="52.7344">Confluence</text><!--entity Redmine--><rect fill="#FEFECE" filter="url(#fut9hq0)" height="36.4883" style="stroke: #A80036; stroke-width: 1.5;" width="80" x="139" y="29.1992"/><rect fill="#FEFECE" height="5" style="stroke: #A80036; stroke-width: 1.5;" width="10" x="134" y="34.1992"/><rect fill="#FEFECE" height="5" style="stroke: #A80036; stroke-width: 1.5;" width="10" x="134" y="55.6875"/><text fill="#000000" font-family="sans-serif" font-size="14" lengthAdjust="spacingAndGlyphs" textLength="60" x="149" y="52.7344">Redmine</text><!--entity OLD JIRA--><rect fill="#FEFECE" filter="url(#fut9hq0)" height="36.4883" style="stroke: #A80036; stroke-width: 1.5;" width="79" x="254.5" y="29.1992"/><rect fill="#FEFECE" height="5" style="stroke: #A80036; stroke-width: 1.5;" width="10" x="249.5" y="34.1992"/><rect fill="#FEFECE" height="5" style="stroke: #A80036; stroke-width: 1.5;" width="10" x="249.5" y="55.6875"/><text fill="#000000" font-family="sans-serif" font-size="14" lengthAdjust="spacingAndGlyphs" textLength="59" x="264.5" y="52.7344">OLD JIRA</text><!--entity Github--><rect fill="#FEFECE" filter="url(#fut9hq0)" height="36.4883" style="stroke: #A80036; stroke-width: 1.5;" width="66" x="369" y="29.1992"/><rect fill="#FEFECE" height="5" style="stroke: #A80036; stroke-width: 1.5;" width="10" x="364" y="34.1992"/><rect fill="#FEFECE" height="5" style="stroke: #A80036; stroke-width: 1.5;" width="10" x="364" y="55.6875"/><text fill="#000000" font-family="sans-serif" font-size="14" lengthAdjust="spacingAndGlyphs" textLength="46" x="379" y="52.7344">Github</text><path d="M236,161.2561 C236,176.7118 236,199.0639 236,215.8723 " fill="none" style="stroke: #A80036; stroke-width: 1.0;"/><polygon fill="#A80036" points="236,220.8969,240,211.8969,236,215.8969,232,211.8969,236,220.8969" style="stroke: #A80036; stroke-width: 1.0;"/><path d="M89.0447,65.2561 C119.7902,81.563 165.0096,105.5468 197.156,122.5968 " fill="none" style="stroke: #A80036; stroke-width: 1.0;"/><polygon fill="#A80036" points="201.8007,125.0604,195.7241,117.3096,197.3836,122.7176,191.9756,124.377,201.8007,125.0604" style="stroke: #A80036; stroke-width: 1.0;"/><path d="M189.7213,65.2561 C198.9772,80.8451 212.3988,103.4498 222.407,120.3057 " fill="none" style="stroke: #A80036; stroke-width: 1.0;"/><polygon fill="#A80036" points="225.133,124.8969,223.9775,115.1161,222.5803,120.5977,217.0987,119.2004,225.133,124.8969" style="stroke: #A80036; stroke-width: 1.0;"/><path d="M283.0906,65.2561 C273.6723,80.8451 260.0153,103.4498 249.8315,120.3057 " fill="none" style="stroke: #A80036; stroke-width: 1.0;"/><polygon fill="#A80036" points="247.0576,124.8969,255.1354,119.2623,249.6433,120.6174,248.2882,115.1252,247.0576,124.8969" style="stroke: #A80036; stroke-width: 1.0;"/><path d="M370.7767,65.2561 C342.6947,81.4962 301.4469,105.3504 271.988,122.3869 " fill="none" style="stroke: #A80036; stroke-width: 1.0;"/><polygon fill="#A80036" points="267.3651,125.0604,277.1586,124.0174,271.6934,122.5573,273.1535,117.0921,267.3651,125.0604" style="stroke: #A80036; stroke-width: 1.0;"/></g></svg>